<?xml version="1.0" encoding="utf-8"?>
<svg xmlns="http://www.w3.org/2000/svg" xmlns:xlink="http://www.w3.org/1999/xlink" width="600" height="400" viewBox="0 0 2400 1600">
<defs>
  <clipPath id="clip1500">
    <rect x="0" y="0" width="2000" height="2000"/>
  </clipPath>
</defs>
<defs>
  <clipPath id="clip1501">
    <rect x="0" y="0" width="2400" height="1600"/>
  </clipPath>
</defs>
<polygon clip-path="url(#clip1501)" points="
0,1600 2400,1600 2400,0 0,0 
  " fill="#ffffff" fill-rule="evenodd" fill-opacity="1"/>
<defs>
  <clipPath id="clip1502">
    <rect x="480" y="0" width="1681" height="1600"/>
  </clipPath>
</defs>
<polygon clip-path="url(#clip1501)" points="
252.496,1440.48 2321.26,1440.48 2321.26,47.2441 252.496,47.2441 
  " fill="#ffffff" fill-rule="evenodd" fill-opacity="1"/>
<defs>
  <clipPath id="clip1503">
    <rect x="252" y="47" width="2070" height="1394"/>
  </clipPath>
</defs>
<polyline clip-path="url(#clip1503)" style="stroke:#000000; stroke-width:2; stroke-opacity:0.1; fill:none" points="
  580.241,1440.48 580.241,47.2441 
  "/>
<polyline clip-path="url(#clip1503)" style="stroke:#000000; stroke-width:2; stroke-opacity:0.1; fill:none" points="
  916.735,1440.48 916.735,47.2441 
  "/>
<polyline clip-path="url(#clip1503)" style="stroke:#000000; stroke-width:2; stroke-opacity:0.1; fill:none" points="
  1253.23,1440.48 1253.23,47.2441 
  "/>
<polyline clip-path="url(#clip1503)" style="stroke:#000000; stroke-width:2; stroke-opacity:0.1; fill:none" points="
  1589.72,1440.48 1589.72,47.2441 
  "/>
<polyline clip-path="url(#clip1503)" style="stroke:#000000; stroke-width:2; stroke-opacity:0.1; fill:none" points="
  1926.22,1440.48 1926.22,47.2441 
  "/>
<polyline clip-path="url(#clip1503)" style="stroke:#000000; stroke-width:2; stroke-opacity:0.1; fill:none" points="
  2262.71,1440.48 2262.71,47.2441 
  "/>
<polyline clip-path="url(#clip1503)" style="stroke:#000000; stroke-width:2; stroke-opacity:0.1; fill:none" points="
  252.496,1208.28 2321.26,1208.28 
  "/>
<polyline clip-path="url(#clip1503)" style="stroke:#000000; stroke-width:2; stroke-opacity:0.1; fill:none" points="
  252.496,976.07 2321.26,976.07 
  "/>
<polyline clip-path="url(#clip1503)" style="stroke:#000000; stroke-width:2; stroke-opacity:0.1; fill:none" points="
  252.496,743.863 2321.26,743.863 
  "/>
<polyline clip-path="url(#clip1503)" style="stroke:#000000; stroke-width:2; stroke-opacity:0.1; fill:none" points="
  252.496,511.657 2321.26,511.657 
  "/>
<polyline clip-path="url(#clip1503)" style="stroke:#000000; stroke-width:2; stroke-opacity:0.1; fill:none" points="
  252.496,279.451 2321.26,279.451 
  "/>
<polyline clip-path="url(#clip1501)" style="stroke:#000000; stroke-width:4; stroke-opacity:1; fill:none" points="
  252.496,1440.48 2321.26,1440.48 
  "/>
<polyline clip-path="url(#clip1501)" style="stroke:#000000; stroke-width:4; stroke-opacity:1; fill:none" points="
  252.496,1440.48 252.496,47.2441 
  "/>
<polyline clip-path="url(#clip1501)" style="stroke:#000000; stroke-width:4; stroke-opacity:1; fill:none" points="
  580.241,1440.48 580.241,1419.58 
  "/>
<polyline clip-path="url(#clip1501)" style="stroke:#000000; stroke-width:4; stroke-opacity:1; fill:none" points="
  916.735,1440.48 916.735,1419.58 
  "/>
<polyline clip-path="url(#clip1501)" style="stroke:#000000; stroke-width:4; stroke-opacity:1; fill:none" points="
  1253.23,1440.48 1253.23,1419.58 
  "/>
<polyline clip-path="url(#clip1501)" style="stroke:#000000; stroke-width:4; stroke-opacity:1; fill:none" points="
  1589.72,1440.48 1589.72,1419.58 
  "/>
<polyline clip-path="url(#clip1501)" style="stroke:#000000; stroke-width:4; stroke-opacity:1; fill:none" points="
  1926.22,1440.48 1926.22,1419.58 
  "/>
<polyline clip-path="url(#clip1501)" style="stroke:#000000; stroke-width:4; stroke-opacity:1; fill:none" points="
  2262.71,1440.48 2262.71,1419.58 
  "/>
<polyline clip-path="url(#clip1501)" style="stroke:#000000; stroke-width:4; stroke-opacity:1; fill:none" points="
  252.496,1208.28 283.528,1208.28 
  "/>
<polyline clip-path="url(#clip1501)" style="stroke:#000000; stroke-width:4; stroke-opacity:1; fill:none" points="
  252.496,976.07 283.528,976.07 
  "/>
<polyline clip-path="url(#clip1501)" style="stroke:#000000; stroke-width:4; stroke-opacity:1; fill:none" points="
  252.496,743.863 283.528,743.863 
  "/>
<polyline clip-path="url(#clip1501)" style="stroke:#000000; stroke-width:4; stroke-opacity:1; fill:none" points="
  252.496,511.657 283.528,511.657 
  "/>
<polyline clip-path="url(#clip1501)" style="stroke:#000000; stroke-width:4; stroke-opacity:1; fill:none" points="
  252.496,279.451 283.528,279.451 
  "/>
<g clip-path="url(#clip1501)">
<text style="fill:#000000; fill-opacity:1; font-family:Arial,Helvetica Neue,Helvetica,sans-serif; font-size:48px; text-anchor:middle;" transform="rotate(0, 580.241, 1494.48)" x="580.241" y="1494.48">5</text>
</g>
<g clip-path="url(#clip1501)">
<text style="fill:#000000; fill-opacity:1; font-family:Arial,Helvetica Neue,Helvetica,sans-serif; font-size:48px; text-anchor:middle;" transform="rotate(0, 916.735, 1494.48)" x="916.735" y="1494.48">10</text>
</g>
<g clip-path="url(#clip1501)">
<text style="fill:#000000; fill-opacity:1; font-family:Arial,Helvetica Neue,Helvetica,sans-serif; font-size:48px; text-anchor:middle;" transform="rotate(0, 1253.23, 1494.48)" x="1253.23" y="1494.48">15</text>
</g>
<g clip-path="url(#clip1501)">
<text style="fill:#000000; fill-opacity:1; font-family:Arial,Helvetica Neue,Helvetica,sans-serif; font-size:48px; text-anchor:middle;" transform="rotate(0, 1589.72, 1494.48)" x="1589.72" y="1494.48">20</text>
</g>
<g clip-path="url(#clip1501)">
<text style="fill:#000000; fill-opacity:1; font-family:Arial,Helvetica Neue,Helvetica,sans-serif; font-size:48px; text-anchor:middle;" transform="rotate(0, 1926.22, 1494.48)" x="1926.22" y="1494.48">25</text>
</g>
<g clip-path="url(#clip1501)">
<text style="fill:#000000; fill-opacity:1; font-family:Arial,Helvetica Neue,Helvetica,sans-serif; font-size:48px; text-anchor:middle;" transform="rotate(0, 2262.71, 1494.48)" x="2262.71" y="1494.48">30</text>
</g>
<g clip-path="url(#clip1501)">
<text style="fill:#000000; fill-opacity:1; font-family:Arial,Helvetica Neue,Helvetica,sans-serif; font-size:48px; text-anchor:end;" transform="rotate(0, 228.496, 1225.78)" x="228.496" y="1225.78">-0.2</text>
</g>
<g clip-path="url(#clip1501)">
<text style="fill:#000000; fill-opacity:1; font-family:Arial,Helvetica Neue,Helvetica,sans-serif; font-size:48px; text-anchor:end;" transform="rotate(0, 228.496, 993.57)" x="228.496" y="993.57">-0.1</text>
</g>
<g clip-path="url(#clip1501)">
<text style="fill:#000000; fill-opacity:1; font-family:Arial,Helvetica Neue,Helvetica,sans-serif; font-size:48px; text-anchor:end;" transform="rotate(0, 228.496, 761.363)" x="228.496" y="761.363">0.0</text>
</g>
<g clip-path="url(#clip1501)">
<text style="fill:#000000; fill-opacity:1; font-family:Arial,Helvetica Neue,Helvetica,sans-serif; font-size:48px; text-anchor:end;" transform="rotate(0, 228.496, 529.157)" x="228.496" y="529.157">0.1</text>
</g>
<g clip-path="url(#clip1501)">
<text style="fill:#000000; fill-opacity:1; font-family:Arial,Helvetica Neue,Helvetica,sans-serif; font-size:48px; text-anchor:end;" transform="rotate(0, 228.496, 296.951)" x="228.496" y="296.951">0.2</text>
</g>
<g clip-path="url(#clip1501)">
<text style="fill:#000000; fill-opacity:1; font-family:Arial,Helvetica Neue,Helvetica,sans-serif; font-size:66px; text-anchor:middle;" transform="rotate(0, 1286.88, 1590.4)" x="1286.88" y="1590.4">n</text>
</g>
<g clip-path="url(#clip1501)">
<text style="fill:#000000; fill-opacity:1; font-family:Arial,Helvetica Neue,Helvetica,sans-serif; font-size:66px; text-anchor:middle;" transform="rotate(-90, 57.6, 743.863)" x="57.6" y="743.863">log10 optimum divisive n!</text>
</g>
<polyline clip-path="url(#clip1503)" style="stroke:#009af9; stroke-width:4; stroke-opacity:1; fill:none" points="
  311.046,743.863 378.345,44.8524 445.644,334.968 512.942,334.968 580.241,927.727 647.54,968.895 714.839,715.454 782.137,653.493 849.436,653.493 916.735,727.982 
  984.034,738.117 1051.33,717.323 1118.63,736.502 1185.93,740.994 1253.23,738.466 1320.53,738.466 1387.83,744.941 1455.12,742.682 1522.42,742.648 1589.72,743.346 
  1657.02,743.679 1724.32,743.623 1791.62,743.36 1858.92,743.78 1926.22,743.78 1993.51,743.749 2060.81,743.834 2128.11,743.838 2195.41,743.851 2262.71,743.814 
  
  "/>
</svg>
